<?xml version="1.0" encoding="UTF-8"?>
<svg version="1.1" xmlns="http://www.w3.org/2000/svg" width="300" height="300">
<path d="M0 0 C1.62664707 -0.01459542 1.62664707 -0.01459542 3.2861557 -0.0294857 C9.01304537 -0.08006483 14.7397159 -0.11298216 20.46679688 -0.13110352 C26.37119946 -0.15323457 32.27315418 -0.23590777 38.17674637 -0.33221912 C42.73217971 -0.39561519 47.28702043 -0.41439925 51.84285736 -0.42105675 C54.01985186 -0.4319633 56.19683082 -0.45959564 58.3733902 -0.5044651 C75.34948418 -0.83111411 75.34948418 -0.83111411 80.12231445 2.78552246 C81.96027038 5.36239518 83.13747042 7.71063332 84.296875 10.64453125 C85.19928794 12.16207983 86.12290985 13.66746436 87.078125 15.15234375 C87.98742589 16.68960571 88.89357328 18.2287365 89.796875 19.76953125 C94.53013231 27.74998749 99.37548016 35.65370188 104.296875 43.51953125 C104.93173828 44.53547363 105.56660156 45.55141602 106.22070312 46.59814453 C109.18549842 51.32834066 112.1989197 55.9975983 115.296875 60.64453125 C115.791875 30.94453125 115.791875 30.94453125 116.296875 0.64453125 C137.746875 0.64453125 159.196875 0.64453125 181.296875 0.64453125 C181.296875 56.41453125 181.296875 112.18453125 181.296875 169.64453125 C159.516875 169.64453125 137.736875 169.64453125 115.296875 169.64453125 C111.996875 164.03453125 108.696875 158.42453125 105.296875 152.64453125 C102.83496339 148.65230929 100.36386094 144.67192389 97.859375 140.70703125 C91.59184094 130.73402672 85.41115077 120.71211215 79.296875 110.64453125 C79.25929077 111.86354126 79.25929077 111.86354126 79.22094727 113.10717773 C79.10538382 116.76563877 78.98247916 120.42381653 78.859375 124.08203125 C78.82005859 125.36142578 78.78074219 126.64082031 78.74023438 127.95898438 C78.69833984 129.17392578 78.65644531 130.38886719 78.61328125 131.640625 C78.55829468 133.32949829 78.55829468 133.32949829 78.50219727 135.05249023 C78.296875 137.64453125 78.296875 137.64453125 77.296875 138.64453125 C75.96607567 138.74321333 74.63012078 138.77360507 73.29566956 138.77583313 C72.00267693 138.7818454 72.00267693 138.7818454 70.68356323 138.78797913 C69.73039215 138.78745041 68.77722107 138.78692169 67.79516602 138.78637695 C66.79671158 138.78985138 65.79825714 138.79332581 64.76954651 138.79690552 C62.59184392 138.80427953 60.41413372 138.8096161 58.23642159 138.81319618 C54.78482564 138.82034555 51.3333732 138.83600331 47.88182068 138.85453796 C38.06454511 138.90706048 28.24734449 138.9549361 18.42993164 138.97045898 C12.43100161 138.98056759 6.43242697 139.00997344 0.43363762 139.05177879 C-1.84955208 139.06406082 -4.13279208 139.06921519 -6.41601372 139.06698036 C-9.62334618 139.06461498 -12.82966961 139.08689146 -16.03686523 139.11450195 C-16.97181824 139.10790054 -17.90677124 139.10129913 -18.87005615 139.09449768 C-28.07373255 139.22380989 -36.2112236 142.00165539 -42.703125 148.64453125 C-47.86838852 154.84284747 -49.24224338 161.85316261 -50.703125 169.64453125 C-51.033125 169.64453125 -51.363125 169.64453125 -51.703125 169.64453125 C-51.79667977 151.02474543 -51.86715872 132.40500748 -51.91037369 113.78503513 C-51.93097494 105.13891797 -51.95904875 96.49294709 -52.00488281 87.84692383 C-52.04482542 80.30863927 -52.07057552 72.77046069 -52.07947898 65.23207325 C-52.08468121 61.24268689 -52.09685703 57.25360361 -52.12604523 53.26431465 C-52.15333198 49.50420039 -52.16154351 45.74451212 -52.15555573 41.98430824 C-52.15716921 39.95706352 -52.17862227 37.92986447 -52.20080566 35.90274048 C-52.16772112 28.53806725 -51.38551358 23.06071285 -47.703125 16.64453125 C-47.166875 15.61328125 -46.630625 14.58203125 -46.078125 13.51953125 C-34.17902798 -0.88463883 -17.07071297 0.11446659 0 0 Z " fill="#00B490" transform="translate(84.703125,77.35546875)"/>
<path d="M0 0 C0 34.65 0 69.3 0 105 C21.12 105 42.24 105 64 105 C65.13324094 108.39972283 65.12942456 111.01857101 65.1328125 114.6015625 C65.13410156 115.89578125 65.13539063 117.19 65.13671875 118.5234375 C65.13462402 119.19600586 65.1325293 119.86857422 65.13037109 120.56152344 C65.1250015 122.62442315 65.1303336 124.68710689 65.13671875 126.75 C65.13478516 128.68746094 65.13478516 128.68746094 65.1328125 130.6640625 C65.13168457 131.85467285 65.13055664 133.0452832 65.12939453 134.27197266 C65 137 65 137 64 138 C62.66920067 138.09868208 61.33324578 138.12907382 59.99879456 138.13130188 C58.70580193 138.13731415 58.70580193 138.13731415 57.38668823 138.14344788 C56.43351715 138.14291916 55.48034607 138.14239044 54.49829102 138.1418457 C53.49983658 138.14532013 52.50138214 138.14879456 51.47267151 138.15237427 C49.29496892 138.15974828 47.11725872 138.16508485 44.93954659 138.16866493 C41.48795064 138.1758143 38.0364982 138.19147206 34.58494568 138.21000671 C24.76767011 138.26252923 14.95046949 138.31040485 5.13305664 138.32592773 C-0.86587339 138.33603634 -6.86444803 138.36544219 -12.86323738 138.40724754 C-15.14642708 138.41952957 -17.42966708 138.42468394 -19.71288872 138.42244911 C-22.92022118 138.42008373 -26.12654461 138.44236021 -29.33374023 138.4699707 C-30.26869324 138.46336929 -31.20364624 138.45676788 -32.16693115 138.44996643 C-41.37060755 138.57927864 -49.5080986 141.35712414 -56 148 C-61.16526352 154.19831622 -62.53911838 161.20863136 -64 169 C-64.33 169 -64.66 169 -65 169 C-65.09355477 150.38021418 -65.16403372 131.76047623 -65.20724869 113.14050388 C-65.22784994 104.49438672 -65.25592375 95.84841584 -65.30175781 87.20239258 C-65.34170042 79.66410802 -65.36745052 72.12592944 -65.37635398 64.587542 C-65.38155621 60.59815564 -65.39373203 56.60907236 -65.42292023 52.6197834 C-65.45020698 48.85966914 -65.45841851 45.09998087 -65.45243073 41.33977699 C-65.45404421 39.31253227 -65.47549727 37.28533322 -65.49768066 35.25820923 C-65.46459612 27.893536 -64.68238858 22.4161816 -61 16 C-60.46375 14.96875 -59.9275 13.9375 -59.375 12.875 C-44.67472487 -4.9200699 -21.22407807 0 0 0 Z " fill="#FDFEFE" transform="translate(98,78)"/>
<path d="M0 0 C1.39141708 -0.00043808 1.39141708 -0.00043808 2.8109436 -0.00088501 C5.85721401 0.00050111 8.90323555 0.01602847 11.94946289 0.03173828 C14.06938035 0.03547096 16.18929955 0.03831673 18.30921936 0.04031372 C23.87408252 0.04793008 29.43884039 0.06756142 35.00366211 0.08972168 C40.68805517 0.11022317 46.37246534 0.11932463 52.05688477 0.12939453 C63.19950901 0.15080919 74.3420553 0.184921 85.48461914 0.22705078 C84.91547224 4.21107907 84.25983761 7.24232697 81.48461914 10.22705078 C78.13815233 10.97875449 74.82938708 10.85730974 71.41357422 10.79467773 C69.86209938 10.79577293 69.86209938 10.79577293 68.27928162 10.79689026 C64.85370807 10.79340128 61.42948698 10.75447629 58.00415039 10.71533203 C55.63189944 10.70600862 53.25963888 10.69889028 50.88737488 10.69389343 C44.6383311 10.67478678 38.38986679 10.62565339 32.14105225 10.57037354 C25.76672201 10.51926068 19.39229829 10.49639636 13.01782227 10.47119141 C0.50650708 10.41753904 -12.0044061 10.3331399 -24.51538086 10.22705078 C-22.65292396 6.04745268 -20.53023337 4.49960881 -16.51538086 2.22705078 C-10.87670827 0.22872218 -5.89529368 -0.04911111 0 0 Z " fill="#FEFEFE" transform="translate(71.515380859375,221.77294921875)"/>
<path d="M0 0 C36.3 0 72.6 0 110 0 C109.67 2.97 109.34 5.94 109 9 C72.37 9 35.74 9 -2 9 C-1.34 6.03 -0.68 3.06 0 0 Z " fill="#FEFEFE" transform="translate(42,238)"/>
<path d="M0 0 C0.33 0 0.66 0 1 0 C1.02465746 4.1117256 1.04283959 8.22342278 1.05493164 12.33520508 C1.0599708 13.73495228 1.06680216 15.1346942 1.07543945 16.53442383 C1.0875232 18.54245777 1.09269807 20.55052957 1.09765625 22.55859375 C1.10289307 23.76829834 1.10812988 24.97800293 1.11352539 26.22436523 C1 29 1 29 0 30 C-1.9943173 30.09405142 -3.99199543 30.11743249 -5.98852539 30.11352539 C-7.26977798 30.11344986 -8.55103058 30.11337433 -9.87110901 30.11329651 C-11.27995848 30.10818909 -12.68880756 30.10297309 -14.09765625 30.09765625 C-15.53112234 30.09579202 -16.96458907 30.09436814 -18.39805603 30.09336853 C-22.17759957 30.08954372 -25.9571049 30.07971377 -29.7366333 30.06866455 C-33.59069298 30.05844963 -37.44475882 30.05387074 -41.29882812 30.04882812 C-48.86590287 30.03809146 -56.43294609 30.02101549 -64 30 C-64 29.34 -64 28.68 -64 28 C-43.21 28 -22.42 28 -1 28 C-1 19.09 -1 10.18 -1 1 C-0.67 0.67 -0.34 0.34 0 0 Z " fill="#CCF0E9" transform="translate(162,186)"/>
</svg>
